{
  "asset": {
    "version": "2.0",
    "generator": "THREE.GLTFExporter"
  },
  "scenes": [
    {
      "nodes": [
        0
      ]
    }
  ],
  "scene": 0,
  "nodes": [
    {
      "children": [
        9
      ],
      "matrix": [
        0.01,
        0,
        0,
        0,
        0,
        0.01,
        0,
        0,
        0,
        0,
        0.01,
        0,
        0,
        0,
        0,
        1
      ]
    },
    {
      "matrix": [
        1,
        0,
        0,
        0,
        0,
        1,
        0,
        0,
        0,
        0,
        1,
        0,
        -157.4265508856388,
        0,
        0,
        1
      ],
      "name": "Text 2",
      "mesh": 0
    },
    {
      "matrix": [
        1,
        0,
        0,
        0,
        0,
        1,
        0,
        0,
        0,
        0,
        1,
        0,
        157.4265508856388,
        0,
        0,
        1
      ],
      "name": "Text",
      "mesh": 1
    },
    {
      "matrix": [
        1,
        0,
        0,
        0,
        0,
        1,
        0,
        0,
        0,
        0,
        1,
        0,
        167.08584315483768,
        398.8086455197681,
        1271.1079559244245,
        1
      ],
      "name": "Group 2",
      "children": [
        1,
        2
      ]
    },
    {
      "matrix": [
        1,
        0,
        0,
        0,
        0,
        1,
        0,
        0,
        0,
        0,
        1,
        0,
        77.295424598759,
        0,
        -37.43993188581953,
        1
      ],
      "name": "Boolean 3",
      "mesh": 2
    },
    {
      "matrix": [
        1,
        0,
        0,
        0,
        0,
        1,
        0,
        0,
        0,
        0,
        1,
        0,
        62.44003895260825,
        13.854314287145826,
        -103.0570365890162,
        1
      ],
      "name": "Boolean 3",
      "mesh": 3
    },
    {
      "matrix": [
        1,
        0,
        0,
        0,
        0,
        1,
        0,
        0,
        0,
        0,
        1,
        0,
        98.05996104739181,
        319,
        1273.0570365890162,
        1
      ],
      "name": "Group",
      "children": [
        4,
        5
      ]
    },
    {
      "matrix": [
        0.7114092264503943,
        8.326672684688674e-17,
        -0.7027779966114844,
        0,
        -0.3013443362160966,
        0.90340408556576,
        -0.3050453232120976,
        0,
        0.6348925133845349,
        0.42879022631479474,
        0.6426900016844632,
        0,
        788.2966432764371,
        729.9906584773153,
        1706.8285897069945,
        1
      ],
      "camera": 0
    },
    {
      "matrix": [
        1,
        0,
        0,
        0,
        0,
        1,
        0,
        0,
        0,
        0,
        1,
        0,
        0,
        1,
        0,
        1
      ],
      "name": "Default Ambient Light"
    },
    {
      "name": "Scene 1",
      "children": [
        3,
        6,
        7,
        8
      ]
    }
  ],
  "bufferViews": [
    {
      "buffer": 0,
      "byteOffset": 0,
      "byteLength": 27720,
      "target": 34962,
      "byteStride": 12
    },
    {
      "buffer": 0,
      "byteOffset": 27720,
      "byteLength": 27720,
      "target": 34962,
      "byteStride": 12
    },
    {
      "buffer": 0,
      "byteOffset": 55440,
      "byteLength": 18480,
      "target": 34962,
      "byteStride": 8
    },
    {
      "buffer": 0,
      "byteOffset": 73920,
      "byteLength": 12960,
      "target": 34963
    },
    {
      "buffer": 0,
      "byteOffset": 86880,
      "byteLength": 44952,
      "target": 34962,
      "byteStride": 12
    },
    {
      "buffer": 0,
      "byteOffset": 131832,
      "byteLength": 44952,
      "target": 34962,
      "byteStride": 12
    },
    {
      "buffer": 0,
      "byteOffset": 176784,
      "byteLength": 29968,
      "target": 34962,
      "byteStride": 8
    },
    {
      "buffer": 0,
      "byteOffset": 206752,
      "byteLength": 20952,
      "target": 34963
    },
    {
      "buffer": 0,
      "byteOffset": 227704,
      "byteLength": 110880,
      "target": 34962,
      "byteStride": 12
    },
    {
      "buffer": 0,
      "byteOffset": 338584,
      "byteLength": 110880,
      "target": 34962,
      "byteStride": 12
    },
    {
      "buffer": 0,
      "byteOffset": 449464,
      "byteLength": 105192,
      "target": 34962,
      "byteStride": 12
    },
    {
      "buffer": 0,
      "byteOffset": 554656,
      "byteLength": 105192,
      "target": 34962,
      "byteStride": 12
    }
  ],
  "buffers": [
    {
      "byteLength": 659848,
      "uri": "data:application/octet-stream;base64,"
    }
  ],
  "accessors": [
    {
      "bufferView": 0,
      "componentType": 5126,
      "count": 2310,
      "max": [
        -3.911750555038452,
        8.660015106201172,
        2.520693778991699
      ],
      "min": [
        -63.54163360595703,
        -7.421041011810303,
        0
      ],
      "type": "VEC3"
    },
    {
      "bufferView": 1,
      "componentType": 5126,
      "count": 2310,
      "max": [
        1,
        1,
        1
      ],
      "min": [
        -1,
        -1,
        -1
      ],
      "type": "VEC3"
    },
    {
      "bufferView": 2,
      "componentType": 5126,
      "count": 2310,
      "max": [
        1,
        1
      ],
      "min": [
        0,
        0
      ],
      "type": "VEC2"
    },
    {
      "bufferView": 3,
      "componentType": 5123,
      "count": 6480,
      "max": [
        2309
      ],
      "min": [
        0
      ],
      "type": "SCALAR"
    },
    {
      "bufferView": 4,
      "componentType": 5126,
      "count": 3746,
      "max": [
        56.42711639404297,
        8.660015106201172,
        2.520693778991699
      ],
      "min": [
        -63.42898941040039,
        -7.431783199310303,
        0
      ],
      "type": "VEC3"
    },
    {
      "bufferView": 5,
      "componentType": 5126,
      "count": 3746,
      "max": [
        0.9999911189079285,
        1,
        1
      ],
      "min": [
        -0.9999991655349731,
        -1,
        -1
      ],
      "type": "VEC3"
    },
    {
      "bufferView": 6,
      "componentType": 5126,
      "count": 3746,
      "max": [
        1,
        1
      ],
      "min": [
        0,
        0
      ],
      "type": "VEC2"
    },
    {
      "bufferView": 7,
      "componentType": 5123,
      "count": 10476,
      "max": [
        3745
      ],
      "min": [
        0
      ],
      "type": "SCALAR"
    },
    {
      "bufferView": 8,
      "componentType": 5126,
      "count": 9240,
      "max": [
        168.79473876953125,
        11.37590217590332,
        44
      ],
      "min": [
        -168.79473876953125,
        -4.993721008300781,
        -44
      ],
      "type": "VEC3"
    },
    {
      "bufferView": 9,
      "componentType": 5126,
      "count": 9240,
      "max": [
        0.9993649125099182,
        0.9987289309501648,
        0.9993649125099182
      ],
      "min": [
        -0.9993649125099182,
        -0.9987289309501648,
        -0.9993649125099182
      ],
      "type": "VEC3"
    },
    {
      "bufferView": 10,
      "componentType": 5126,
      "count": 8766,
      "max": [
        240,
        100,
        100
      ],
      "min": [
        -240,
        -100,
        -100
      ],
      "type": "VEC3"
    },
    {
      "bufferView": 11,
      "componentType": 5126,
      "count": 8766,
      "max": [
        1,
        1,
        1
      ],
      "min": [
        -1,
        -1,
        -1
      ],
      "type": "VEC3"
    }
  ],
  "meshes": [
    {
      "primitives": [
        {
          "mode": 4,
          "attributes": {
            "POSITION": 0,
            "NORMAL": 1,
            "TEXCOORD_0": 2
          },
          "extras": {
            "parameters": {
              "type": "TextGeometry",
              "width": 128.56568860915831,
              "height": 27.02666950915227,
              "depth": 2.520693877362646,
              "horizontalAlign": 1,
              "verticalAlign": 1,
              "fontSize": 22,
              "lineHeight": 1.2,
              "letterSpacing": 0,
              "text": {
                "textValue": "CP-01"
              },
              "textTransform": 1,
              "font": "Roboto_900",
              "editable": false,
              "extrudeBevelSize": 0,
              "extrudeBevelSegments": 1
            },
            "type": "TextGeometry"
          },
          "indices": 3
        }
      ]
    },
    {
      "primitives": [
        {
          "mode": 4,
          "attributes": {
            "POSITION": 4,
            "NORMAL": 5,
            "TEXCOORD_0": 6
          },
          "extras": {
            "parameters": {
              "type": "TextGeometry",
              "width": 128.56568860915831,
              "height": 27.02666950915227,
              "depth": 2.520693877362646,
              "horizontalAlign": 1,
              "verticalAlign": 1,
              "fontSize": 22,
              "lineHeight": 1.2,
              "letterSpacing": 0,
              "text": {
                "textValue": "CANDYSIGN"
              },
              "textTransform": 1,
              "font": "Roboto_900italic",
              "editable": false,
              "extrudeBevelSize": 0,
              "extrudeBevelSegments": 1
            },
            "type": "TextGeometry"
          },
          "indices": 7
        }
      ]
    },
    {
      "primitives": [
        {
          "mode": 4,
          "attributes": {
            "POSITION": 8,
            "NORMAL": 9
          },
          "extras": {
            "parameters": {
              "width": 337.5894775390625,
              "height": 16.3696231842041,
              "depth": 88
            }
          }
        }
      ]
    },
    {
      "primitives": [
        {
          "mode": 4,
          "attributes": {
            "POSITION": 10,
            "NORMAL": 11
          },
          "extras": {
            "parameters": {
              "width": 480,
              "height": 200,
              "depth": 200
            }
          }
        }
      ]
    }
  ],
  "cameras": [
    {
      "type": "orthographic",
      "orthographic": {
        "xmag": 6.224948209873576,
        "ymag": 3.0908597014302823,
        "zfar": 100000,
        "znear": 0
      }
    }
  ]
}