<svg width="41" height="49" viewBox="0 0 41 49" fill="none" xmlns="http://www.w3.org/2000/svg">
<path d="M29.7238 0.359894C29.8382 0.819221 29.9527 1.27855 29.9527 1.73788C29.9527 3.69004 29.3232 5.64219 28.1787 7.59434C26.8625 9.66133 25.3175 10.9245 23.5435 11.4412C23.4291 11.4412 22.399 11.6709 20.3389 12.0728C20.9112 5.98669 24.0585 2.08238 29.7238 0.359894ZM30.4105 11.3838C34.4162 11.3838 37.3919 12.9341 39.3375 16.092C35.904 19.0776 34.1873 22.1781 34.1873 25.5082C34.1873 27.5752 34.7595 29.5848 36.0185 31.5369C37.3346 33.6039 38.9369 34.8671 40.8826 35.3838C40.0814 38.0824 38.708 40.7235 36.8196 43.3647C34.4162 46.58 32.1272 48.1876 29.9527 48.1876C28.8654 48.1876 27.492 47.8431 25.8897 47.269C24.2874 46.6374 22.8568 46.3503 21.6551 46.3503C20.2817 46.3503 18.7939 46.6948 17.1916 47.3838C15.5321 48.0154 14.3304 48.3599 13.6437 48.3599C11.2974 48.3599 9.00846 46.6374 6.71948 43.2498C2.8282 37.4508 0.882568 31.824 0.882568 26.4269C0.882568 22.2355 1.79816 18.7905 3.62935 16.1494C5.63221 13.1063 8.49344 11.6135 12.2703 11.6135C13.7581 11.6135 15.4748 11.9006 17.306 12.4747C19.08 13.0489 20.3962 13.3934 21.1973 13.3934C21.884 13.3934 23.1429 13.0489 25.0886 12.3599C26.977 11.6709 28.7509 11.3838 30.4105 11.3838Z" fill="black"/>
</svg>
